<mxfile host="app.diagrams.net" modified="2024-07-17T23:36:03.663Z" agent="Mozilla/5.0 (Windows NT 10.0; Win64; x64) AppleWebKit/537.36 (KHTML, like Gecko) Chrome/126.0.0.0 Safari/537.36" etag="Q3z2GFBOf1-nV16tGUvT" version="24.7.1" type="github">
  <diagram name="Page-1" id="KiZ2jsft7vK1jkktiLax">
    <mxGraphModel dx="1400" dy="1865" grid="1" gridSize="10" guides="1" tooltips="1" connect="1" arrows="1" fold="1" page="1" pageScale="1" pageWidth="850" pageHeight="1100" math="0" shadow="0">
      <root>
        <mxCell id="0" />
        <mxCell id="1" parent="0" />
        <mxCell id="InWcTPxe8AopwB7_U1Sk-1" value="" style="strokeWidth=2;html=1;shape=mxgraph.flowchart.terminator;whiteSpace=wrap;" vertex="1" parent="1">
          <mxGeometry x="180" y="80" width="280" height="40" as="geometry" />
        </mxCell>
        <mxCell id="InWcTPxe8AopwB7_U1Sk-2" value="" style="strokeWidth=2;html=1;shape=mxgraph.flowchart.decision;whiteSpace=wrap;" vertex="1" parent="1">
          <mxGeometry x="270" y="180" width="100" height="100" as="geometry" />
        </mxCell>
        <mxCell id="InWcTPxe8AopwB7_U1Sk-3" value="" style="strokeWidth=2;html=1;shape=mxgraph.flowchart.terminator;whiteSpace=wrap;" vertex="1" parent="1">
          <mxGeometry x="200" y="340" width="230" height="40" as="geometry" />
        </mxCell>
        <mxCell id="InWcTPxe8AopwB7_U1Sk-4" value="" style="strokeWidth=2;html=1;shape=mxgraph.flowchart.decision;whiteSpace=wrap;" vertex="1" parent="1">
          <mxGeometry x="270" y="440" width="100" height="100" as="geometry" />
        </mxCell>
        <mxCell id="InWcTPxe8AopwB7_U1Sk-5" value="" style="strokeWidth=2;html=1;shape=mxgraph.flowchart.terminator;whiteSpace=wrap;" vertex="1" parent="1">
          <mxGeometry x="240" y="600" width="150" height="40" as="geometry" />
        </mxCell>
        <mxCell id="InWcTPxe8AopwB7_U1Sk-6" value="" style="strokeWidth=2;html=1;shape=mxgraph.flowchart.decision;whiteSpace=wrap;" vertex="1" parent="1">
          <mxGeometry x="270" y="700" width="100" height="100" as="geometry" />
        </mxCell>
        <mxCell id="InWcTPxe8AopwB7_U1Sk-7" value="" style="strokeWidth=2;html=1;shape=mxgraph.flowchart.terminator;whiteSpace=wrap;" vertex="1" parent="1">
          <mxGeometry x="180" y="860" width="280" height="40" as="geometry" />
        </mxCell>
        <mxCell id="InWcTPxe8AopwB7_U1Sk-8" value="" style="strokeWidth=2;html=1;shape=mxgraph.flowchart.terminator;whiteSpace=wrap;" vertex="1" parent="1">
          <mxGeometry x="510" y="470" width="280" height="40" as="geometry" />
        </mxCell>
        <mxCell id="InWcTPxe8AopwB7_U1Sk-10" value="&lt;font style=&quot;font-size: 18px;&quot;&gt;Student Login&lt;/font&gt;" style="text;strokeColor=none;align=center;fillColor=none;html=1;verticalAlign=middle;whiteSpace=wrap;rounded=0;" vertex="1" parent="1">
          <mxGeometry x="235" y="85" width="170" height="30" as="geometry" />
        </mxCell>
        <mxCell id="InWcTPxe8AopwB7_U1Sk-12" value="&lt;font style=&quot;font-size: 18px;&quot;&gt;Check&lt;/font&gt;&lt;div&gt;&lt;font size=&quot;3&quot;&gt;Validity&lt;/font&gt;&lt;/div&gt;" style="text;strokeColor=none;align=center;fillColor=none;html=1;verticalAlign=middle;whiteSpace=wrap;rounded=0;" vertex="1" parent="1">
          <mxGeometry x="290" y="215" width="60" height="30" as="geometry" />
        </mxCell>
        <mxCell id="InWcTPxe8AopwB7_U1Sk-13" value="&lt;font style=&quot;font-size: 18px;&quot;&gt;Check Fees Status&lt;/font&gt;" style="text;strokeColor=none;align=center;fillColor=none;html=1;verticalAlign=middle;whiteSpace=wrap;rounded=0;" vertex="1" parent="1">
          <mxGeometry x="215" y="345" width="200" height="30" as="geometry" />
        </mxCell>
        <mxCell id="InWcTPxe8AopwB7_U1Sk-14" value="&lt;font style=&quot;font-size: 18px;&quot;&gt;Pay Fee&lt;/font&gt;" style="text;strokeColor=none;align=center;fillColor=none;html=1;verticalAlign=middle;whiteSpace=wrap;rounded=0;" vertex="1" parent="1">
          <mxGeometry x="235" y="605" width="160" height="30" as="geometry" />
        </mxCell>
        <mxCell id="InWcTPxe8AopwB7_U1Sk-15" value="&lt;font style=&quot;font-size: 18px;&quot;&gt;Display Dashboard&lt;/font&gt;" style="text;strokeColor=none;align=center;fillColor=none;html=1;verticalAlign=middle;whiteSpace=wrap;rounded=0;" vertex="1" parent="1">
          <mxGeometry x="220" y="865" width="200" height="30" as="geometry" />
        </mxCell>
        <mxCell id="InWcTPxe8AopwB7_U1Sk-16" value="&lt;font style=&quot;font-size: 18px;&quot;&gt;Display Dashboard&lt;/font&gt;" style="text;strokeColor=none;align=center;fillColor=none;html=1;verticalAlign=middle;whiteSpace=wrap;rounded=0;" vertex="1" parent="1">
          <mxGeometry x="550" y="475" width="200" height="30" as="geometry" />
        </mxCell>
        <mxCell id="InWcTPxe8AopwB7_U1Sk-17" value="" style="edgeStyle=none;orthogonalLoop=1;jettySize=auto;html=1;rounded=0;exitX=0.501;exitY=1.036;exitDx=0;exitDy=0;exitPerimeter=0;entryX=0.5;entryY=0;entryDx=0;entryDy=0;entryPerimeter=0;" edge="1" parent="1" source="InWcTPxe8AopwB7_U1Sk-1" target="InWcTPxe8AopwB7_U1Sk-2">
          <mxGeometry width="80" relative="1" as="geometry">
            <mxPoint x="360" y="270" as="sourcePoint" />
            <mxPoint x="440" y="270" as="targetPoint" />
            <Array as="points" />
          </mxGeometry>
        </mxCell>
        <mxCell id="InWcTPxe8AopwB7_U1Sk-18" value="" style="edgeStyle=none;orthogonalLoop=1;jettySize=auto;html=1;rounded=0;exitX=0.5;exitY=1;exitDx=0;exitDy=0;exitPerimeter=0;" edge="1" parent="1" source="InWcTPxe8AopwB7_U1Sk-2">
          <mxGeometry width="80" relative="1" as="geometry">
            <mxPoint x="319.5" y="285" as="sourcePoint" />
            <mxPoint x="320" y="340" as="targetPoint" />
            <Array as="points" />
          </mxGeometry>
        </mxCell>
        <mxCell id="InWcTPxe8AopwB7_U1Sk-19" value="" style="edgeStyle=none;orthogonalLoop=1;jettySize=auto;html=1;rounded=0;exitX=0.521;exitY=1.022;exitDx=0;exitDy=0;exitPerimeter=0;entryX=0.5;entryY=0;entryDx=0;entryDy=0;entryPerimeter=0;" edge="1" parent="1" source="InWcTPxe8AopwB7_U1Sk-3" target="InWcTPxe8AopwB7_U1Sk-4">
          <mxGeometry width="80" relative="1" as="geometry">
            <mxPoint x="319.5" y="385" as="sourcePoint" />
            <mxPoint x="320.5" y="440" as="targetPoint" />
            <Array as="points" />
          </mxGeometry>
        </mxCell>
        <mxCell id="InWcTPxe8AopwB7_U1Sk-20" value="" style="edgeStyle=none;orthogonalLoop=1;jettySize=auto;html=1;rounded=0;exitX=0.5;exitY=1;exitDx=0;exitDy=0;exitPerimeter=0;entryX=0.5;entryY=0;entryDx=0;entryDy=0;entryPerimeter=0;" edge="1" parent="1" source="InWcTPxe8AopwB7_U1Sk-4">
          <mxGeometry width="80" relative="1" as="geometry">
            <mxPoint x="319.5" y="545" as="sourcePoint" />
            <mxPoint x="320.5" y="600" as="targetPoint" />
            <Array as="points" />
          </mxGeometry>
        </mxCell>
        <mxCell id="InWcTPxe8AopwB7_U1Sk-21" value="" style="edgeStyle=none;orthogonalLoop=1;jettySize=auto;html=1;rounded=0;exitX=0.531;exitY=0.991;exitDx=0;exitDy=0;exitPerimeter=0;" edge="1" parent="1" source="InWcTPxe8AopwB7_U1Sk-5">
          <mxGeometry width="80" relative="1" as="geometry">
            <mxPoint x="319.5" y="645" as="sourcePoint" />
            <mxPoint x="320" y="700" as="targetPoint" />
            <Array as="points" />
          </mxGeometry>
        </mxCell>
        <mxCell id="InWcTPxe8AopwB7_U1Sk-22" value="" style="edgeStyle=none;orthogonalLoop=1;jettySize=auto;html=1;rounded=0;exitX=0.504;exitY=1.019;exitDx=0;exitDy=0;exitPerimeter=0;entryX=0.5;entryY=0;entryDx=0;entryDy=0;entryPerimeter=0;" edge="1" parent="1" source="InWcTPxe8AopwB7_U1Sk-6">
          <mxGeometry width="80" relative="1" as="geometry">
            <mxPoint x="319.5" y="805" as="sourcePoint" />
            <mxPoint x="320.5" y="860" as="targetPoint" />
            <Array as="points" />
          </mxGeometry>
        </mxCell>
        <mxCell id="InWcTPxe8AopwB7_U1Sk-23" value="" style="edgeStyle=none;orthogonalLoop=1;jettySize=auto;html=1;rounded=0;exitX=1;exitY=0.5;exitDx=0;exitDy=0;exitPerimeter=0;entryX=0;entryY=0.5;entryDx=0;entryDy=0;entryPerimeter=0;" edge="1" parent="1" source="InWcTPxe8AopwB7_U1Sk-4" target="InWcTPxe8AopwB7_U1Sk-8">
          <mxGeometry width="80" relative="1" as="geometry">
            <mxPoint x="329.5" y="395" as="sourcePoint" />
            <mxPoint x="330.5" y="450" as="targetPoint" />
            <Array as="points" />
          </mxGeometry>
        </mxCell>
        <mxCell id="InWcTPxe8AopwB7_U1Sk-24" value="" style="edgeStyle=none;orthogonalLoop=1;jettySize=auto;html=1;rounded=0;exitX=0.536;exitY=1;exitDx=0;exitDy=0;exitPerimeter=0;" edge="1" parent="1" source="InWcTPxe8AopwB7_U1Sk-8">
          <mxGeometry width="80" relative="1" as="geometry">
            <mxPoint x="610" y="560" as="sourcePoint" />
            <mxPoint x="660" y="590" as="targetPoint" />
            <Array as="points" />
          </mxGeometry>
        </mxCell>
        <mxCell id="InWcTPxe8AopwB7_U1Sk-26" value="" style="edgeStyle=none;orthogonalLoop=1;jettySize=auto;html=1;rounded=0;exitX=0.5;exitY=1;exitDx=0;exitDy=0;" edge="1" parent="1">
          <mxGeometry width="80" relative="1" as="geometry">
            <mxPoint x="320" y="20" as="sourcePoint" />
            <mxPoint x="320" y="80" as="targetPoint" />
            <Array as="points" />
          </mxGeometry>
        </mxCell>
        <mxCell id="InWcTPxe8AopwB7_U1Sk-27" style="edgeStyle=none;rounded=0;orthogonalLoop=1;jettySize=auto;html=1;exitX=0;exitY=0.5;exitDx=0;exitDy=0;exitPerimeter=0;entryX=0;entryY=0.5;entryDx=0;entryDy=0;entryPerimeter=0;" edge="1" parent="1" source="InWcTPxe8AopwB7_U1Sk-6" target="InWcTPxe8AopwB7_U1Sk-3">
          <mxGeometry relative="1" as="geometry">
            <Array as="points">
              <mxPoint x="160" y="750" />
              <mxPoint x="160" y="560" />
              <mxPoint x="160" y="360" />
            </Array>
          </mxGeometry>
        </mxCell>
        <mxCell id="InWcTPxe8AopwB7_U1Sk-28" value="&lt;font style=&quot;font-size: 18px;&quot;&gt;Fail&lt;/font&gt;" style="text;strokeColor=none;align=center;fillColor=none;html=1;verticalAlign=middle;whiteSpace=wrap;rounded=0;" vertex="1" parent="1">
          <mxGeometry x="190" y="720" width="60" height="30" as="geometry" />
        </mxCell>
        <mxCell id="InWcTPxe8AopwB7_U1Sk-30" value="" style="strokeWidth=2;html=1;shape=mxgraph.flowchart.start_2;whiteSpace=wrap;" vertex="1" parent="1">
          <mxGeometry x="300" y="-20" width="40" height="40" as="geometry" />
        </mxCell>
        <mxCell id="InWcTPxe8AopwB7_U1Sk-35" value="" style="verticalLabelPosition=bottom;verticalAlign=top;html=1;shape=mxgraph.basic.arc;startAngle=0.3;endAngle=0.29750758046958997;" vertex="1" parent="1">
          <mxGeometry x="640" y="595" width="40" height="40" as="geometry" />
        </mxCell>
        <mxCell id="InWcTPxe8AopwB7_U1Sk-36" value="" style="ellipse;whiteSpace=wrap;html=1;aspect=fixed;" vertex="1" parent="1">
          <mxGeometry x="648.75" y="603.75" width="22.5" height="22.5" as="geometry" />
        </mxCell>
      </root>
    </mxGraphModel>
  </diagram>
</mxfile>
